PathFileType	4	(X/Y/Z)	C:/Users/beibeiliu/ov580/test_trc\sequence.14_training_dense_left.trc
DataRate	CameraRate	NumFrames	NumMarkers	Units	OrigDataRate	OrigDataStartFrame	OrigNumFrames
120	120	13	19	mm	120	48	383
Frame#	Time	ThumbCMC			ThumbMCP			ThumbIP			ThumbTip			IndexMCP			IndexPIP			IndexTip			MiddleMCP			MiddlePIP			MiddleTip			RingMCP			RingPIP			RingTip			PinkyMCP			PinkyPIP			PinkyTip			BackHand1			BackHand2			BackHand3	
		X0	Y0	Z0	X1	Y1	Z1	X2	Y2	Z2	X3	Y3	Z3	X4	Y4	Z4	X5	Y5	Z5	X6	Y6	Z6	X7	Y7	Z7	X8	Y8	Z8	X9	Y9	Z9	X10	Y10	Z10	X11	Y11	Z11	X12	Y12	Z12	X13	Y13	Z13	X14	Y14	Z14	X15	Y15	Z15	X16	Y16	Z16	X17	Y17	Z17	X18	Y18	Z18	
47	0.391667	-209.873	32.7803	1.26679	-197.316	31.8405	-26.9551	-194.918	32.0708	-54.2084	-200.454	21.0521	-73.3107	-218.321	49.8237	-59.7674	-199.154	42.1654	-71.3099	-177.233	21.9565	-64.4656	-231.435	34.7516	-65.7486	-209.097	24.7044	-85.6817	-182.38	10.3529	-80.4329	-234.851	13.7262	-70.0818	-211.303	9.30407	-76.1266	-191.457	-2.58142	-58.4881	-241.157	-1.68892	-60.968	-217.283	-6.54132	-66.5296	-203.718	-3.83284	-44.5991	-255.492	10.7257	-18.2854	-256.109	8.34568	5.05671	-244.523	33.1407	-0.239485	
48	0.4	-213.508	31.8974	3.60785	-198.347	33.0656	-25.5198	-195.139	33.2286	-52.9784	-204.218	19.3504	-71.0481	-222.151	49.1833	-59.3583	-200.473	39.4219	-73.352	-178.872	22.8378	-64.1424	-232.374	31.0909	-67.3038	-205.972	27.2136	-84.6081	-179.289	13.008	-77.6127	-234.681	14.3368	-65.892	-208.437	4.28093	-75.7101	-190.391	2.45979	-52.4037	-237.934	-6.25226	-64.4568	-212.996	-5.76557	-65.6373	-201.567	-3.57009	-47.3271	-257.936	7.22846	-19.7296	-256.649	3.77075	2.2147	-248.751	27.0885	-1.52827	
49	0.408333	-214.599	36.0557	-0.159151	-200.969	35.395	-25.5473	-198.77	33.078	-50.8072	-202.564	21.2301	-72.7965	-222.767	47.3138	-61.9429	-198.233	40.0847	-71.8354	-178.383	27.1718	-60.7837	-231.412	31.1208	-69.3891	-207.309	25.0683	-84.3218	-178.857	9.51365	-77.5679	-233.884	10.7127	-69.2563	-205.517	7.22053	-74.2171	-188.74	0.17884	-54.6037	-239.177	-4.508	-59.0476	-214.317	-3.83914	-66.9494	-196.88	-5.07864	-45.616	-258.395	7.08751	-23.0693	-254.845	2.95791	3.64495	-249.464	27.6146	-3.62125	
50	0.416667	-216.772	34.1781	3.80668	-201.951	38.0386	-27.015	-199.82	33.4834	-49.9373	-199.608	23.8991	-73.2329	-225.814	48.3243	-57.7672	-200.612	38.3501	-73.2056	-178.795	30.3103	-60.4373	-231.414	28.6718	-69.0775	-206.49	24.8911	-84.8872	-180.446	13.3493	-79.3642	-233.632	10.3507	-67.5476	-203.765	5.18983	-74.5639	-186.183	2.72056	-52.3049	-233.884	-7.86843	-63.1065	-211.66	-8.51758	-68.3083	-195.72	-1.2423	-49.741	-257.268	3.80494	-21.7133	-257.935	-1.33167	1.62058	-251.902	25.6891	-5.02362	
51	0.425	-218.536	35.0977	3.21425	-200.696	40.9356	-26.2421	-201.125	33.5877	-50.0059	-201.429	22.5788	-74.6512	-226.846	45.571	-61.328	-201.14	41.0556	-71.6267	-178.515	29.1237	-56.375	-231.384	27.9166	-69.1984	-208.411	29.0348	-84.2443	-175.222	15.3954	-76.5342	-230.809	10.7632	-68.2713	-202.67	9.99117	-74.5809	-184.764	4.46087	-57.3663	-232.943	-12.5127	-61.6928	-206.632	-5.80605	-66.4847	-195.447	2.32177	-47.6861	-255.188	2.79283	-23.9301	-255.712	-5.71838	1.35085	-253.169	26.1561	-6.17925	
52	0.433333	-224.207	33.8029	-0.38572	-206.032	40.2379	-24.4976	-203.522	36.251	-56.131	-202.113	23.3187	-73.1563	-229.458	42.2482	-61.8161	-203.08	40.4571	-71.7881	-180.57	30.6383	-54.4873	-229.736	25.082	-73.7146	-207.243	28.8517	-84.7394	-176.387	24.2845	-75.4187	-229.8	3.71174	-67.5431	-202.435	10.2984	-75.185	-181.173	8.744	-57.6086	-227.618	-13.521	-61.5161	-203.19	-4.99386	-65.2507	-187.573	2.81056	-45.506	-252.654	0.0218313	-25.6587	-255.816	-8.98653	3.21232	-254.483	24.087	-9.22302	
53	0.441667	-224.291	36.1237	1.5568	-208.552	42.8327	-30.0334	-203.561	37.4491	-55.3993	-201.687	24.0895	-70.683	-230.535	41.9809	-61.9272	-202.134	42.7091	-70.6702	-181.388	37.6969	-55.3783	-228.801	27.6841	-72.4688	-202.643	28.3674	-84.7968	-174.957	24.8934	-74.8223	-226.753	8.27795	-68.7222	-201.792	9.52457	-75.6626	-180.85	15.0784	-62.4645	-225.375	-11.4754	-60.7928	-201.977	-2.30833	-66.0016	-186.8	7.37027	-49.8937	-253.12	-6.3303	-22.6663	-253.927	-8.47055	1.40908	-255.061	23.0187	-10.0101	
54	0.45	-226.93	36.9326	-3.33585	-209.712	42.0448	-27.4683	-203.765	37.4596	-53.6824	-200.318	23.7826	-69.6611	-229.597	40.0472	-63.4551	-198.984	42.5564	-70.4649	-180.953	38.9947	-53.8321	-228.35	20.052	-72.5905	-200.514	27.8003	-83.5234	-172.766	28.592	-72.7839	-223.802	1.35918	-67.8829	-195.901	7.83112	-75.4952	-178.664	16.6682	-61.164	-219.221	-13.1562	-61.9614	-198.357	-3.58095	-65.622	-186.697	8.84754	-48.2419	-250.358	-7.92296	-25.2152	-249.188	-12.3159	1.96447	-252.793	19.6455	-9.73651	
55	0.458333	-226.942	33.804	-2.64767	-209.144	42.6468	-30.1115	-203.769	34.9089	-51.4348	-195.839	24.6921	-72.8095	-229.848	36.9243	-63.0879	-200.695	41.1674	-70.2341	-179.871	39.3981	-51.8541	-226.609	21.1692	-72.1981	-199.288	28.8722	-84.2461	-173.273	27.284	-74.0613	-223.032	3.11721	-66.5414	-191.817	10.1553	-74.8178	-175.83	17.9678	-59.7715	-216.423	-16.1319	-60.8453	-197.32	-3.8847	-66.1998	-182.295	8.40207	-44.1845	-246.599	-6.65727	-24.3939	-248.97	-9.56579	-0.159108	-254.274	15.7619	-8.26045	
56	0.466667	-227.249	35.8336	-4.27819	-208.182	44.3893	-29.4947	-200.756	38.7405	-53.1363	-192.967	27.2219	-70.4297	-226.688	39.018	-64.9843	-199.818	44.1106	-69.8676	-179.675	43.7336	-52.1943	-223.274	20.6011	-74.1277	-195.31	26.2412	-83.2599	-168.499	27.5361	-69.4991	-219.452	1.79832	-66.2357	-189.447	10.2518	-73.0191	-174.111	21.1322	-54.9832	-215.943	-14.769	-57.5497	-194.845	-4.27896	-65.4143	-180.868	8.55708	-44.3088	-244.676	-10.9778	-29.4363	-248.14	-14.3367	1.45459	-251.253	17.288	-12.7008	
57	0.475	-224.878	33.5321	-0.407495	-207.31	42.1808	-25.999	-200.474	34.1146	-51.4923	-193.197	24.5122	-67.7956	-221.959	39.5302	-65.5292	-196.039	41.0979	-69.7558	-177.038	41.9172	-48.9621	-220.878	19.1531	-73.9262	-197.055	25.1355	-83.7116	-165.978	28.8876	-67.8876	-214.165	3.56293	-69.8708	-189.069	12.6	-73.7963	-173.619	19.631	-56.9235	-211.411	-15.7447	-58.4393	-187.178	-4.35238	-62.5014	-177.191	8.62337	-44.1299	-240.384	-10.9555	-26.3699	-246.725	-9.77729	-0.0247715	-250.173	14.5622	-10.89	
58	0.483333	-222.206	37.2477	0.165399	-204.404	41.4692	-26.661	-197.089	37.7361	-48.681	-190.688	24.9071	-69.764	-222.276	38.494	-63.9067	-195.411	41.8809	-70.417	-173.459	40.2251	-46.7112	-219.659	18.6758	-71.5032	-189.884	27.2176	-82.3818	-163.533	30.8425	-68.3889	-214.056	1.56391	-67.458	-186.078	11.048	-72.7031	-171.421	19.3609	-56.49	-208.371	-15.999	-59.1456	-187.808	-3.264	-63.3005	-177.104	9.95099	-41.2305	-239.802	-6.13737	-28.5091	-243.11	-12.1089	0.651461	-248.161	14.2056	-12.7704	
59	0.491667	-218.737	37.8234	1.08529	-200.894	41.8201	-26.7824	-194.205	36.9627	-49.2681	-189.206	23.0509	-68.573	-217.127	42.3701	-66.0349	-189.859	46.665	-68.4604	-172.742	40.8507	-51.8284	-216.017	20.1529	-74.2011	-192.233	28.0666	-83.5685	-163.24	26.8886	-70.5682	-210.213	3.03419	-69.7667	-184.179	13.7843	-71.5916	-166.854	18.4839	-50.5105	-207.979	-15.317	-57.0151	-182.825	-2.56301	-60.2785	-178.087	8.22266	-42.4257	-237.827	-11.0473	-24.7593	-242.28	-12.9215	-0.373568	-246.529	18.9354	-11.5646	
